<svg width="1167" height="1076" viewBox="0 0 1167 1076" fill="none" xmlns="http://www.w3.org/2000/svg">
<g clip-path="url(#clip0_375_1151)">
<path d="M826.312 348.786H634.494C633.65 295.799 628.628 245.151 621.535 198.261C659.377 183.691 696.414 166.247 732.837 145.658L707.264 198.299C704.964 203.053 706.919 208.805 711.712 211.105L746.18 227.86C750.934 230.16 756.685 228.205 758.986 223.412L831.718 73.7691C834.401 68.2097 831.258 61.6151 825.238 60.2348L779.651 49.8062L778.999 48.8477C778.693 49.0394 778.424 49.2311 778.117 49.4228L663.019 23.1212C657.843 21.9326 652.705 25.1532 651.555 30.3292L643.005 67.7113C641.817 72.8872 645.037 78.0249 650.213 79.1751L709.603 92.7477C677.167 111.42 644.616 127.293 611.566 140.712C601.521 89.1053 589.827 43.6717 580.012 7.01813C578.9 2.839 575.104 -0.11322 570.733 -0.11322H527.523C520.967 -0.11322 516.328 6.28966 518.437 12.5008C530.284 47.5825 543.933 99.8023 554.86 161.109C487.764 182.12 417.448 193.66 340.268 197.111C335.131 197.341 331.066 201.52 331.066 206.658V245.075C331.066 250.519 335.629 254.928 341.073 254.66C419.748 251.094 493.362 239.132 563.717 217.93C569.315 259.529 573.225 303.774 574.376 348.671H459.661L506.513 311.404C510.654 308.107 511.344 302.087 508.046 297.946L484.199 267.926C480.901 263.785 474.882 263.095 470.741 266.392L340.537 370.065C335.706 373.899 335.706 381.222 340.537 385.056L470.779 488.576C474.92 491.873 480.94 491.183 484.237 487.042L508.085 457.021C511.382 452.881 510.692 446.861 506.551 443.564L459.699 406.297H574.261C573.225 438.196 570.618 469.981 565.902 500.921C565.021 506.749 569.468 512.002 575.373 512.002H614.442C619.157 512.002 623.183 508.59 623.912 503.95C629.164 470.977 632.232 438.35 633.65 406.297H826.273C831.564 406.297 835.858 402.003 835.858 396.712V358.371C835.858 353.08 831.564 348.786 826.273 348.786H826.312Z" fill="#FF7B52"/>
</g>
<path d="M119.389 981.333H45.8889V935.833H116.667C136.759 935.833 153.546 932.204 167.028 924.944C180.639 917.556 190.815 906.472 197.556 891.694C204.426 876.917 207.861 858.444 207.861 836.278C207.861 814.111 204.491 795.704 197.75 781.056C191.009 766.407 180.963 755.454 167.611 748.194C154.259 740.806 137.732 737.111 118.028 737.111H44.3333V691.611H121.139C149.917 691.611 174.611 697.38 195.222 708.917C215.963 720.454 231.907 737.046 243.056 758.694C254.204 780.343 259.778 806.204 259.778 836.278C259.778 866.352 254.204 892.278 243.056 914.056C231.907 935.704 215.833 952.361 194.833 964.028C173.963 975.565 148.815 981.333 119.389 981.333ZM73.5 691.611V981.333H21V691.611H73.5ZM376.553 985.611C354.776 985.611 335.979 981.074 320.165 972C304.35 962.796 292.165 949.833 283.609 933.111C275.183 916.389 270.97 896.685 270.97 874C270.97 851.574 275.183 831.935 283.609 815.083C292.035 798.102 303.896 784.88 319.192 775.417C334.489 765.954 352.507 761.222 373.248 761.222C386.6 761.222 399.239 763.361 411.165 767.639C423.22 771.917 433.85 778.528 443.053 787.472C452.387 796.417 459.711 807.824 465.026 821.694C470.34 835.435 472.998 851.833 472.998 870.889V886.833H294.887V852.417H447.526L423.609 862.528C423.609 850.213 421.729 839.519 417.97 830.444C414.211 821.241 408.637 814.046 401.248 808.861C393.859 803.676 384.655 801.083 373.637 801.083C362.618 801.083 353.22 803.676 345.442 808.861C337.665 814.046 331.766 821.046 327.748 829.861C323.729 838.546 321.72 848.269 321.72 859.028V882.944C321.72 896.167 323.989 907.509 328.526 916.972C333.192 926.306 339.674 933.435 347.97 938.361C356.396 943.287 366.183 945.75 377.331 945.75C384.59 945.75 391.202 944.713 397.165 942.639C403.257 940.565 408.442 937.454 412.72 933.306C417.128 929.028 420.498 923.778 422.831 917.556L470.665 923.194C467.553 935.769 461.785 946.787 453.359 956.25C445.063 965.583 434.368 972.843 421.276 978.028C408.313 983.083 393.405 985.611 376.553 985.611ZM597.162 763.944V803.611H472.523V763.944H597.162ZM503.051 712.222H554.19V916C554.19 924.556 556.07 930.907 559.829 935.056C563.588 939.074 569.551 941.083 577.718 941.083C579.922 941.083 582.385 940.889 585.107 940.5C587.829 940.111 590.292 939.657 592.496 939.139L601.246 979.194C595.801 980.88 590.292 982.111 584.718 982.889C579.144 983.796 573.57 984.25 567.996 984.25C547.773 984.25 531.894 978.935 520.357 968.306C508.82 957.546 503.051 942.898 503.051 924.361V712.222ZM705.771 985.611C684.512 985.611 666.105 980.944 650.549 971.611C634.993 962.278 622.938 949.185 614.382 932.333C605.956 915.482 601.743 895.907 601.743 873.611C601.743 851.185 605.956 831.546 614.382 814.694C622.938 797.713 634.993 784.556 650.549 775.222C666.105 765.889 684.512 761.222 705.771 761.222C727.03 761.222 745.438 765.889 760.993 775.222C776.549 784.556 788.605 797.713 797.16 814.694C805.716 831.546 809.993 851.185 809.993 873.611C809.993 895.907 805.716 915.482 797.16 932.333C788.605 949.185 776.549 962.278 760.993 971.611C745.438 980.944 727.03 985.611 705.771 985.611ZM705.771 944.389C717.568 944.389 727.29 941.278 734.938 935.056C742.586 928.704 748.29 920.148 752.049 909.389C755.938 898.63 757.882 886.704 757.882 873.611C757.882 860.259 755.938 848.204 752.049 837.444C748.29 826.685 742.586 818.194 734.938 811.972C727.29 805.62 717.568 802.444 705.771 802.444C694.234 802.444 684.577 805.62 676.799 811.972C669.021 818.194 663.188 826.685 659.299 837.444C655.54 848.204 653.66 860.259 653.66 873.611C653.66 886.704 655.54 898.63 659.299 909.389C663.188 920.148 669.021 928.704 676.799 935.056C684.577 941.278 694.234 944.389 705.771 944.389ZM964.686 890.139V763.944H1015.82V981.333H966.241V942.639H963.908C958.982 954.824 950.945 964.806 939.797 972.583C928.649 980.361 914.908 984.185 898.575 984.056C884.315 984.056 871.741 980.944 860.852 974.722C850.093 968.37 841.602 959.102 835.38 946.917C829.288 934.602 826.241 919.759 826.241 902.389V763.944H877.38V894.611C877.38 908.222 881.139 919.111 888.658 927.278C896.306 935.444 906.288 939.463 918.602 939.333C926.121 939.333 933.38 937.519 940.38 933.889C947.51 930.259 953.343 924.815 957.88 917.556C962.417 910.296 964.686 901.157 964.686 890.139ZM1041.79 981.333V763.944H1091.38V800.5H1093.71C1097.6 787.796 1104.41 778.074 1114.13 771.333C1123.85 764.463 1134.93 761.028 1147.38 761.028C1150.1 761.028 1153.21 761.157 1156.71 761.417C1160.34 761.676 1163.32 762 1165.66 762.389V809.444C1163.45 808.667 1160.02 808.019 1155.35 807.5C1150.68 806.981 1146.21 806.722 1141.93 806.722C1132.47 806.722 1124.04 808.731 1116.66 812.75C1109.27 816.769 1103.43 822.278 1099.16 829.278C1095.01 836.278 1092.93 844.444 1092.93 853.778V981.333H1041.79Z" fill="#181D27"/>
<defs>
<clipPath id="clip0_375_1151">
<rect width="504.792" height="512" fill="white" transform="translate(331.104)"/>
</clipPath>
</defs>
</svg>
