<svg width="505" height="512" viewBox="0 0 505 512" fill="none" xmlns="http://www.w3.org/2000/svg">
<g clip-path="url(#clip0_375_1171)">
<path d="M495.208 348.786H303.39C302.547 295.799 297.524 245.151 290.431 198.261C328.273 183.691 365.31 166.247 401.734 145.658L376.161 198.299C373.86 203.053 375.816 208.805 380.608 211.105L415.076 227.86C419.831 230.16 425.582 228.205 427.882 223.412L500.614 73.7691C503.298 68.2097 500.154 61.6151 494.135 60.2348L448.548 49.8062L447.896 48.8477C447.589 49.0394 447.321 49.2311 447.014 49.4228L331.916 23.1212C326.74 21.9326 321.602 25.1532 320.452 30.3292L311.902 67.7113C310.713 72.8872 313.934 78.0249 319.11 79.1751L378.499 92.7477C346.063 111.42 313.512 127.293 280.463 140.712C270.417 89.1053 258.723 43.6717 248.908 7.01813C247.796 2.839 244.001 -0.11322 239.63 -0.11322H196.42C189.864 -0.11322 185.225 6.28966 187.333 12.5008C199.181 47.5825 212.83 99.8023 223.757 161.109C156.661 182.12 86.3442 193.66 9.16463 197.111C4.02699 197.341 -0.0371094 201.52 -0.0371094 206.658V245.075C-0.0371094 250.519 4.52542 254.928 9.96978 254.66C88.6446 251.094 162.259 239.132 232.613 217.93C238.211 259.529 242.122 303.774 243.272 348.671H128.557L175.409 311.404C179.55 308.107 180.24 302.087 176.943 297.946L153.095 267.926C149.798 263.785 143.778 263.095 139.638 266.392L9.43301 370.065C4.6021 373.899 4.6021 381.222 9.43301 385.056L139.676 488.576C143.817 491.873 149.836 491.183 153.133 487.042L176.981 457.021C180.279 452.881 179.588 446.861 175.448 443.564L128.596 406.297H243.157C242.122 438.196 239.515 469.981 234.799 500.921C233.917 506.749 238.365 512.002 244.269 512.002H283.338C288.054 512.002 292.08 508.59 292.808 503.95C298.061 470.977 301.128 438.35 302.547 406.297H495.17C500.461 406.297 504.755 402.003 504.755 396.712V358.371C504.755 353.08 500.461 348.786 495.17 348.786H495.208Z" fill="#FF7B52"/>
</g>
<defs>
<clipPath id="clip0_375_1171">
<rect width="504.792" height="512" fill="white"/>
</clipPath>
</defs>
</svg>
