<svg width="1758" height="512" viewBox="0 0 1758 512" fill="none" xmlns="http://www.w3.org/2000/svg">
<g clip-path="url(#clip0_375_1121)">
<path d="M495.208 348.786H303.39C302.547 295.799 297.524 245.151 290.431 198.261C328.273 183.691 365.31 166.247 401.734 145.658L376.161 198.299C373.86 203.053 375.816 208.805 380.608 211.105L415.076 227.86C419.831 230.16 425.582 228.205 427.882 223.412L500.614 73.7691C503.298 68.2097 500.154 61.6151 494.135 60.2348L448.548 49.8062L447.896 48.8477C447.589 49.0394 447.321 49.2311 447.014 49.4228L331.916 23.1212C326.74 21.9326 321.602 25.1532 320.452 30.3292L311.902 67.7113C310.713 72.8872 313.934 78.0249 319.11 79.1751L378.499 92.7477C346.063 111.42 313.512 127.293 280.463 140.712C270.417 89.1053 258.723 43.6717 248.908 7.01813C247.796 2.839 244.001 -0.11322 239.63 -0.11322H196.42C189.864 -0.11322 185.225 6.28966 187.333 12.5008C199.181 47.5825 212.83 99.8023 223.757 161.109C156.661 182.12 86.3442 193.66 9.16463 197.111C4.02699 197.341 -0.0371094 201.52 -0.0371094 206.658V245.075C-0.0371094 250.519 4.52542 254.928 9.96978 254.66C88.6446 251.094 162.259 239.132 232.613 217.93C238.211 259.529 242.122 303.774 243.272 348.671H128.557L175.409 311.404C179.55 308.107 180.24 302.087 176.943 297.946L153.095 267.926C149.798 263.785 143.778 263.095 139.638 266.392L9.43301 370.065C4.6021 373.899 4.6021 381.222 9.43301 385.056L139.676 488.576C143.817 491.873 149.836 491.183 153.133 487.042L176.981 457.021C180.279 452.881 179.588 446.861 175.448 443.564L128.596 406.297H243.157C242.122 438.196 239.515 469.981 234.799 500.921C233.917 506.749 238.365 512.002 244.269 512.002H283.338C288.054 512.002 292.08 508.59 292.808 503.95C298.061 470.977 301.128 438.35 302.547 406.297H495.17C500.461 406.297 504.755 402.003 504.755 396.712V358.371C504.755 353.08 500.461 348.786 495.17 348.786H495.208Z" fill="#FF7B52"/>
</g>
<path d="M709.514 401H636.014V355.5H706.792C726.884 355.5 743.671 351.87 757.153 344.611C770.764 337.222 780.94 326.139 787.681 311.361C794.551 296.583 797.986 278.111 797.986 255.944C797.986 233.778 794.616 215.37 787.875 200.722C781.134 186.074 771.088 175.12 757.736 167.861C744.384 160.472 727.857 156.778 708.153 156.778H634.458V111.278H711.264C740.042 111.278 764.736 117.046 785.347 128.583C806.088 140.12 822.032 156.713 833.181 178.361C844.329 200.009 849.903 225.87 849.903 255.944C849.903 286.018 844.329 311.944 833.181 333.722C822.032 355.37 805.958 372.028 784.958 383.694C764.088 395.231 738.94 401 709.514 401ZM663.625 111.278V401H611.125V111.278H663.625ZM966.678 405.278C944.901 405.278 926.104 400.741 910.29 391.667C894.475 382.463 882.29 369.5 873.734 352.778C865.308 336.056 861.095 316.352 861.095 293.667C861.095 271.241 865.308 251.602 873.734 234.75C882.16 217.768 894.021 204.546 909.317 195.083C924.614 185.62 942.632 180.889 963.373 180.889C976.725 180.889 989.364 183.028 1001.29 187.306C1013.35 191.583 1023.97 198.194 1033.18 207.139C1042.51 216.083 1049.84 227.491 1055.15 241.361C1060.47 255.102 1063.12 271.5 1063.12 290.556V306.5H885.012V272.083H1037.65L1013.73 282.194C1013.73 269.88 1011.85 259.185 1008.1 250.111C1004.34 240.907 998.762 233.713 991.373 228.528C983.984 223.343 974.78 220.75 963.762 220.75C952.743 220.75 943.345 223.343 935.567 228.528C927.79 233.713 921.891 240.713 917.873 249.528C913.854 258.213 911.845 267.935 911.845 278.694V302.611C911.845 315.833 914.114 327.176 918.651 336.639C923.317 345.972 929.799 353.102 938.095 358.028C946.521 362.954 956.308 365.417 967.456 365.417C974.715 365.417 981.327 364.38 987.29 362.306C993.382 360.231 998.567 357.12 1002.85 352.972C1007.25 348.694 1010.62 343.444 1012.96 337.222L1060.79 342.861C1057.68 355.435 1051.91 366.454 1043.48 375.917C1035.19 385.25 1024.49 392.509 1011.4 397.694C998.438 402.75 983.53 405.278 966.678 405.278ZM1187.29 183.611V223.278H1062.65V183.611H1187.29ZM1093.18 131.889H1144.32V335.667C1144.32 344.222 1146.19 350.574 1149.95 354.722C1153.71 358.741 1159.68 360.75 1167.84 360.75C1170.05 360.75 1172.51 360.556 1175.23 360.167C1177.95 359.778 1180.42 359.324 1182.62 358.806L1191.37 398.861C1185.93 400.546 1180.42 401.778 1174.84 402.556C1169.27 403.463 1163.69 403.917 1158.12 403.917C1137.9 403.917 1122.02 398.602 1110.48 387.972C1098.94 377.213 1093.18 362.565 1093.18 344.028V131.889ZM1295.9 405.278C1274.64 405.278 1256.23 400.611 1240.67 391.278C1225.12 381.944 1213.06 368.852 1204.51 352C1196.08 335.148 1191.87 315.574 1191.87 293.278C1191.87 270.852 1196.08 251.213 1204.51 234.361C1213.06 217.38 1225.12 204.222 1240.67 194.889C1256.23 185.556 1274.64 180.889 1295.9 180.889C1317.16 180.889 1335.56 185.556 1351.12 194.889C1366.67 204.222 1378.73 217.38 1387.29 234.361C1395.84 251.213 1400.12 270.852 1400.12 293.278C1400.12 315.574 1395.84 335.148 1387.29 352C1378.73 368.852 1366.67 381.944 1351.12 391.278C1335.56 400.611 1317.16 405.278 1295.9 405.278ZM1295.9 364.056C1307.69 364.056 1317.41 360.944 1325.06 354.722C1332.71 348.37 1338.41 339.815 1342.17 329.056C1346.06 318.296 1348.01 306.37 1348.01 293.278C1348.01 279.926 1346.06 267.87 1342.17 257.111C1338.41 246.352 1332.71 237.861 1325.06 231.639C1317.41 225.287 1307.69 222.111 1295.9 222.111C1284.36 222.111 1274.7 225.287 1266.92 231.639C1259.15 237.861 1253.31 246.352 1249.42 257.111C1245.66 267.87 1243.79 279.926 1243.79 293.278C1243.79 306.37 1245.66 318.296 1249.42 329.056C1253.31 339.815 1259.15 348.37 1266.92 354.722C1274.7 360.944 1284.36 364.056 1295.9 364.056ZM1554.81 309.806V183.611H1605.95V401H1556.37V362.306H1554.03C1549.11 374.491 1541.07 384.472 1529.92 392.25C1518.77 400.028 1505.03 403.852 1488.7 403.722C1474.44 403.722 1461.87 400.611 1450.98 394.389C1440.22 388.037 1431.73 378.769 1425.51 366.583C1419.41 354.269 1416.37 339.426 1416.37 322.056V183.611H1467.51V314.278C1467.51 327.889 1471.26 338.778 1478.78 346.944C1486.43 355.111 1496.41 359.13 1508.73 359C1516.25 359 1523.51 357.185 1530.51 353.556C1537.63 349.926 1543.47 344.481 1548.01 337.222C1552.54 329.963 1554.81 320.824 1554.81 309.806ZM1631.92 401V183.611H1681.5V220.167H1683.84C1687.73 207.463 1694.53 197.741 1704.25 191C1713.98 184.13 1725.06 180.694 1737.5 180.694C1740.23 180.694 1743.34 180.824 1746.84 181.083C1750.47 181.343 1753.45 181.667 1755.78 182.056V229.111C1753.58 228.333 1750.14 227.685 1745.48 227.167C1740.81 226.648 1736.34 226.389 1732.06 226.389C1722.6 226.389 1714.17 228.398 1706.78 232.417C1699.39 236.435 1693.56 241.944 1689.28 248.944C1685.13 255.944 1683.06 264.111 1683.06 273.444V401H1631.92Z" fill="#181D27"/>
<defs>
<clipPath id="clip0_375_1121">
<rect width="504.792" height="512" fill="white"/>
</clipPath>
</defs>
</svg>
