<svg width="131" height="40" viewBox="0 0 131 40" fill="none" xmlns="http://www.w3.org/2000/svg">
<path d="M1.58206 32.126C1.50158 30.722 1.51537 29.3244 1.62343 27.9331C1.73148 26.5419 1.81614 25.1519 1.87739 23.7633C1.87337 23.6931 1.87635 23.5404 1.88633 23.305C1.89498 23.0463 1.90295 22.7759 1.91026 22.4938C1.94096 22.2103 1.9613 21.9509 1.97129 21.7156C2.00333 21.4555 2.01734 21.2903 2.01332 21.2201L2.00527 21.0798L2.85167 10.0445C2.77805 9.57918 2.82477 9.16567 2.99185 8.80395C3.18098 8.41749 3.54463 8.20884 4.08281 8.17799C4.66376 8.07426 5.14814 8.12866 5.53594 8.34119C5.9458 8.52898 6.28948 8.79099 6.56699 9.12722C6.8445 9.46345 7.07722 9.83746 7.26516 10.2493C7.4531 10.6611 7.65072 11.0371 7.85803 11.3773C7.99381 11.6982 8.15633 12.0763 8.34561 12.5114C8.55829 12.9453 8.80107 13.4948 9.07396 14.16C9.37025 14.8238 9.71036 15.6377 10.0943 16.6017C10.5016 17.5643 10.9678 18.7349 11.4929 20.1133L11.6413 20.2457C11.7997 20.1427 12.0952 19.9731 12.5277 19.7371C12.9836 19.4997 13.4506 19.2499 13.9285 18.9877C14.4299 18.7242 14.8968 18.4744 15.3293 18.2383C15.7618 18.0023 16.0697 17.8438 16.2529 17.7628C16.2736 17.7147 16.3301 17.6762 16.4223 17.6475C16.5366 17.594 16.6165 17.5542 16.662 17.5281L16.7322 17.5241C16.9662 17.5107 17.147 17.5942 17.2747 17.7747C17.4011 17.9318 17.469 18.0922 17.4784 18.256C17.4932 18.5134 17.4474 18.739 17.3411 18.9329C17.2349 19.1268 17.1045 19.3104 16.9501 19.4836C16.8178 19.632 16.662 19.7818 16.4829 19.9329C16.3272 20.0827 16.2072 20.2422 16.123 20.4113L12.7488 22.3654C12.6619 22.4878 12.6205 22.5841 12.6245 22.6543C12.6352 22.8415 12.7456 23.1286 12.9556 23.5157C13.189 23.9014 13.3709 24.2079 13.5013 24.4351C13.5795 24.5715 13.7113 24.8222 13.8965 25.1872C14.0818 25.5522 14.2794 25.9282 14.4894 26.3153C14.6994 26.7023 14.897 27.0784 15.0823 27.4433C15.2896 27.7836 15.4324 28.0219 15.5106 28.1583L15.5167 28.2636C15.565 29.106 15.1679 29.5513 14.3255 29.5996C14.0682 29.6143 13.7977 29.6063 13.5143 29.5756C13.2294 29.5215 13.0088 29.3581 12.8523 29.0854L10.213 24.2011L9.89709 24.2192C9.04683 24.9487 8.13739 25.6699 7.16879 26.3828C6.20018 27.0956 5.20281 27.7162 4.17668 28.2446C4.06118 29.0963 4.00484 29.9564 4.00767 30.8249C4.0339 31.692 4.09523 32.5571 4.19165 33.4202C4.01922 33.6883 3.84343 33.8979 3.66428 34.049C3.48379 34.1768 3.22976 34.25 2.90217 34.2688C2.57458 34.2876 2.32487 34.2315 2.15303 34.1004C1.97984 33.946 1.85212 33.7656 1.76985 33.559C1.68624 33.329 1.63706 33.0853 1.6223 32.828C1.60755 32.5706 1.59413 32.3366 1.58206 32.126ZM4.31552 25.1378C5.00139 24.8168 5.6585 24.4035 6.28685 23.8979C6.9386 23.391 7.55726 22.9213 8.14283 22.4886C8.21035 22.4378 8.28956 22.3863 8.38048 22.3341C8.49479 22.2806 8.59673 22.2161 8.6863 22.1405C8.77588 22.065 8.88818 21.9764 9.02321 21.8747L9.00711 21.5939L5.2509 12.5832L5.10245 12.4509C5.04031 12.5953 4.96951 12.9984 4.89007 13.6603C4.83403 14.3208 4.766 15.1816 4.68596 16.2426C4.62798 17.2789 4.556 18.4803 4.47 19.8468C4.4074 21.212 4.33847 22.6715 4.2632 24.2252L4.31552 25.1378ZM27.6363 27.2871C27.6129 27.2885 27.4638 27.5553 27.1892 28.0875C26.9379 28.6183 26.584 29.2021 26.1275 29.8386C25.671 30.4751 25.1182 31.0703 24.4691 31.6239C23.8435 32.1763 23.1562 32.4739 22.4075 32.5168C21.3779 32.5758 20.494 32.3096 19.7558 31.718C19.0411 31.1252 18.6521 30.2789 18.5891 29.1791C18.5101 28.6202 18.5421 27.9493 18.685 27.1664C18.8513 26.3822 19.0982 25.5698 19.4257 24.7294C19.7752 23.8642 20.1969 23.0301 20.6908 22.2271C21.2067 21.3993 21.7645 20.6866 22.3641 20.0888C22.9624 19.4676 23.5927 18.9971 24.2552 18.6775C24.9411 18.3564 25.6404 18.2694 26.3531 18.4163L26.3249 17.925C26.29 17.3166 26.2311 16.6979 26.1481 16.0688C26.0871 15.4149 26.0098 14.6799 25.916 13.8636C25.8443 13.0226 25.7542 12.0652 25.6457 10.9915C25.5593 9.89311 25.4725 8.58344 25.3853 7.06249C25.4407 6.80108 25.5483 6.63058 25.7081 6.55099C25.8899 6.44667 26.0861 6.38847 26.2967 6.3764C26.8349 6.34555 27.2662 6.49689 27.5905 6.83044C27.9382 7.16265 28.1619 7.58413 28.2616 8.09489C28.2604 8.89314 28.2839 9.71345 28.3322 10.5558C28.4026 11.3734 28.503 12.3067 28.6336 13.3557C28.7641 14.4046 28.9378 15.5919 29.1547 16.9176C29.3949 18.242 29.6844 19.81 30.023 21.6217C30.3603 23.41 30.7604 25.4765 31.2235 27.821C31.6852 30.1421 32.2269 32.8343 32.8485 35.8975L32.9169 37.0908C32.925 37.2312 32.8725 37.3399 32.7595 37.4168C32.67 37.4923 32.544 37.5465 32.3815 37.5793C32.2438 37.6342 32.093 37.6663 31.9293 37.6757C31.7902 37.7071 31.6856 37.7248 31.6154 37.7289C31.2644 37.749 30.884 37.6652 30.4741 37.4774C30.0656 37.313 29.8162 37.0573 29.7259 36.7103L27.89 27.4134C27.886 27.3432 27.8489 27.3102 27.7787 27.3142C27.7305 27.2935 27.6831 27.2844 27.6363 27.2871ZM21.5032 28.4134C21.5072 28.4836 21.5029 28.613 21.4902 28.8015C21.4996 28.9653 21.5097 29.1408 21.5204 29.328C21.5545 29.5138 21.599 29.6756 21.6539 29.8133C21.7087 29.951 21.8063 30.0159 21.9467 30.0078C22.533 29.9977 23.117 29.7412 23.6985 29.2383C24.3035 28.7341 24.8439 28.128 25.3198 27.4199C25.7943 26.6884 26.1726 25.9155 26.4545 25.1012C26.7599 24.2855 26.9062 23.5611 26.8934 22.928C26.904 22.2935 26.7244 21.8226 26.3546 21.5151C26.0069 21.1829 25.4289 21.1338 24.6207 21.368C23.6655 22.3148 22.8815 23.381 22.2686 24.5664C21.6792 25.7505 21.424 27.0329 21.5032 28.4134ZM36.6082 27.301L32.2101 18.151C32.1854 18.129 32.1724 18.1062 32.171 18.0828L32.163 17.9424C32.1509 17.7319 32.1993 17.553 32.3083 17.4059C32.4393 17.2341 32.595 17.0843 32.7755 16.9566C32.8223 16.9539 32.9159 16.9485 33.0563 16.9405C33.1954 16.909 33.2883 16.8919 33.3351 16.8893C33.7797 16.8638 34.0996 16.9159 34.2948 17.0455C34.5135 17.1739 34.7933 17.3456 35.1343 17.5608C35.248 17.9065 35.3858 18.2624 35.5476 18.6288C35.7329 18.9938 35.9476 19.4627 36.1917 20.0356C36.4579 20.5838 36.7913 21.2807 37.1919 22.1263C37.5925 22.972 38.1001 24.0463 38.7148 25.3492L38.9003 25.5146C38.9638 25.3936 39.0136 25.2381 39.0497 25.0482C39.1091 24.857 39.1956 24.5234 39.3092 24.0474C39.4462 23.57 39.6296 22.8787 39.8594 21.9734C40.0892 21.0682 40.4179 19.8403 40.8455 18.2899C41.0153 17.9749 41.1238 17.6166 41.1712 17.2148C41.2186 16.813 41.2791 16.4339 41.3525 16.0775C41.426 15.7212 41.5497 15.4206 41.7234 15.1759C41.9206 14.9299 42.2298 14.7948 42.651 14.7706C43.0488 14.7478 43.4442 14.8895 43.8374 15.1956C44.2292 15.4783 44.4379 15.842 44.4634 16.2866C44.4754 16.4972 44.4186 16.7352 44.293 17.0006C44.166 17.2426 44.037 17.4496 43.906 17.6214L40.4409 32.1169L40.2303 32.129C40.1367 32.1344 39.9956 32.1307 39.8071 32.118C39.6419 32.104 39.4644 32.079 39.2746 32.0429C39.0833 31.9835 38.9155 31.9227 38.7711 31.8605C38.6267 31.7984 38.5401 31.7212 38.5113 31.6289L36.6162 27.4414L36.6082 27.301ZM60.6043 20.9603C60.5817 21.3842 60.5419 21.7151 60.4852 21.9531C60.4518 22.1898 60.3703 22.4058 60.2406 22.601C60.1109 22.7963 59.9234 23.0065 59.6781 23.2319C59.4315 23.4338 59.0966 23.7348 58.6734 24.1346C58.249 24.5111 57.7259 25.0106 57.1043 25.6331C56.4826 26.2557 55.7307 27.0617 54.8484 28.0514C54.4941 28.4238 54.1288 28.8086 53.7525 29.2058C53.3762 29.603 52.9744 29.9664 52.5473 30.2961C52.1422 30.601 51.711 30.8605 51.2538 31.0745C50.7965 31.2885 50.3105 31.4103 49.7957 31.4398C48.7896 31.4975 48.033 31.2005 47.5262 30.5487C47.0193 29.897 46.7404 29.1265 46.6894 28.2373C46.6558 27.6524 46.6394 27.1603 46.64 26.7612C46.664 26.3607 46.7281 25.8406 46.8322 25.2008C46.5614 24.9815 46.3277 24.7954 46.1312 24.6423C45.9332 24.4658 45.8256 24.2255 45.8081 23.9213C45.792 23.6405 45.8398 23.45 45.9514 23.3497C46.0865 23.2481 46.2352 23.1808 46.3976 23.148C46.5822 23.0905 46.755 23.0337 46.9161 22.9775C47.0772 22.9213 47.1888 22.821 47.251 22.6766C47.2897 22.5335 47.3569 22.2714 47.4524 21.8903C47.5713 21.5079 47.6896 21.1137 47.8072 20.7079C47.9234 20.2787 48.03 19.8852 48.1269 19.5275C48.2458 19.1451 48.3246 18.8823 48.3634 18.7393C48.5044 18.3321 48.6571 17.9242 48.8215 17.5157C49.0079 17.0825 49.2204 16.6947 49.4591 16.3523C49.7211 16.0086 50.0215 15.7214 50.3604 15.4907C50.7228 15.2587 51.1496 15.1286 51.641 15.1004C51.9218 15.0843 52.2684 15.1936 52.681 15.4281C53.1169 15.6614 53.5328 15.9545 53.9287 16.3074C54.3232 16.6369 54.6605 16.9932 54.9407 17.3762C55.2209 17.7593 55.369 18.0912 55.3851 18.372C55.4053 18.7229 55.3421 19.0552 55.1958 19.3688C55.0481 19.659 54.8529 19.9401 54.6103 20.2123C54.3897 20.4597 54.1451 20.6967 53.8763 20.9234C53.6076 21.1501 53.3616 21.3638 53.1384 21.5644C53.115 21.5657 53.0695 21.5918 53.002 21.6426C52.9345 21.6934 52.878 21.7319 52.8325 21.758C52.8105 21.7827 52.7553 21.8446 52.6671 21.9435C52.6009 22.0177 52.5237 22.1043 52.4355 22.2033C52.3473 22.3023 52.259 22.4012 52.1708 22.5002C52.106 22.5978 52.0625 22.659 52.0405 22.6837C51.9743 22.7579 51.8406 22.883 51.6394 23.0589C51.4603 23.21 51.2591 23.3858 51.0358 23.5864C50.8112 23.7637 50.5983 23.9402 50.3971 24.1161C50.218 24.2672 50.0946 24.3682 50.0271 24.419L49.9028 24.7078C49.8614 24.8041 49.8267 25.0174 49.7986 25.3476C49.7927 25.6532 49.7777 26.0062 49.7537 26.4066C49.7297 26.8071 49.7064 27.2193 49.6837 27.6431C49.6831 28.0423 49.6902 28.3705 49.705 28.6279C49.7063 28.6513 49.7193 28.674 49.7441 28.6961C49.7936 28.7402 49.83 28.7616 49.8534 28.7603C50.0406 28.7495 50.2114 28.6576 50.3658 28.4844C50.5202 28.3112 50.689 28.1841 50.8722 28.1032L56.1902 22.5867L57.5025 20.293C57.6101 20.1225 57.8223 19.9343 58.1391 19.7283C58.4781 19.4976 58.823 19.3722 59.174 19.352C59.5236 19.3085 59.8339 19.3964 60.1047 19.6156C60.3989 19.8335 60.5654 20.2817 60.6043 20.9603ZM52.7257 18.6653C52.8373 18.565 52.8761 18.4219 52.8419 18.236C52.8078 18.0502 52.7282 17.8904 52.6032 17.7567C52.5015 17.6217 52.3681 17.5472 52.203 17.5332C52.0365 17.4958 51.8891 17.5864 51.7608 17.805C51.696 17.9026 51.578 18.0972 51.4069 18.3887C51.2592 18.6789 51.1005 18.9814 50.9307 19.2964C50.783 19.5865 50.6567 19.8403 50.5518 20.0576C50.4469 20.2749 50.4282 20.3581 50.4957 20.3073L52.7257 18.6653ZM64.5459 20.4527C64.2184 20.4714 63.9306 20.5701 63.6826 20.7487C63.4346 20.9272 63.1351 21.0265 62.7841 21.0467C62.7373 21.0493 62.6086 21.0567 62.398 21.0688C62.2095 21.0561 62.0918 21.0511 62.045 21.0538C61.9447 20.9422 61.834 20.8546 61.713 20.7911C61.592 20.7276 61.471 20.6641 61.35 20.6007C61.2276 20.5138 61.1163 20.4145 61.016 20.3029C60.9391 20.1899 60.8946 20.0281 60.8825 19.8175C60.8624 19.4665 60.9867 19.1777 61.2554 18.951C61.5228 18.7009 61.839 18.4833 62.204 18.298C62.569 18.1128 62.9346 17.9392 63.301 17.7773C63.6907 17.6141 63.9972 17.4322 64.2205 17.2316L64.1319 15.6873C64.0327 13.9558 63.8515 12.2289 63.5885 10.5068C63.3241 8.76124 63.1429 7.0344 63.045 5.32627C63.0182 4.85829 63.1177 4.54739 63.3437 4.39359C63.5696 4.23978 63.8815 4.15147 64.2793 4.12867C64.7472 4.10184 65.0946 4.22279 65.3213 4.49151C65.57 4.73548 65.7526 5.05368 65.869 5.4461C65.984 5.81512 66.0543 6.22192 66.0798 6.6665C66.1039 7.08769 66.1364 7.4497 66.1773 7.75255C66.1947 8.05674 66.249 8.59358 66.34 9.36306C66.4311 10.1326 66.5248 10.9488 66.6212 11.8119C66.7177 12.675 66.8114 13.4913 66.9025 14.2608C66.9935 15.0303 67.0595 15.5664 67.1003 15.8693C67.1926 15.8405 67.3647 15.772 67.6167 15.6636C67.8908 15.5305 68.1773 15.4084 68.4761 15.2974C68.7736 15.163 69.0483 15.0416 69.3004 14.9332C69.5758 14.8235 69.7707 14.742 69.885 14.6884C70.4786 14.3962 71.0943 14.0792 71.732 13.7374C72.3684 13.3723 73.0259 13.1703 73.7045 13.1314C74.1724 13.1045 74.5328 13.2482 74.7856 13.5624C75.0604 13.8518 75.2099 14.2071 75.234 14.6283C75.2515 14.9325 75.1472 15.1615 74.9213 15.3153C74.6953 15.4691 74.457 15.6119 74.2063 15.7436L67.9552 18.4965C67.8877 18.5474 67.8202 18.5982 67.7527 18.649C67.6838 18.6764 67.6163 18.7272 67.5501 18.8015L67.6145 19.9246C67.6615 20.7436 67.7221 21.597 67.7965 22.4848C67.8929 23.3479 68.0231 24.1856 68.187 24.9978C68.3443 25.6931 68.5125 26.376 68.6918 27.0465C68.8711 27.717 68.9809 28.4033 69.0211 29.1053C69.0332 29.3159 68.9791 29.6007 68.8588 29.9597C68.7385 30.3187 68.5263 30.507 68.2221 30.5244C67.5904 30.5606 67.0648 30.4029 66.6456 30.0514C66.2264 29.6998 65.9752 29.2094 65.8922 28.5803C65.7055 27.3703 65.5003 26.0439 65.2768 24.6012C65.0766 23.1572 64.8798 21.7717 64.6863 20.4446L64.5459 20.4527ZM86.8178 28.2612C86.4633 27.812 86.1457 27.1846 85.8647 26.379C85.6059 25.5487 85.345 24.6833 85.0821 23.7828C84.8412 22.8576 84.6141 21.9668 84.4007 21.1104C84.1859 20.2307 83.9702 19.5387 83.7535 19.0347C83.5588 18.5059 83.3542 18.2124 83.1396 18.1543C82.925 18.0962 82.6974 18.4262 82.4568 19.1442L79.9425 28.7257C79.8442 29.06 79.7173 29.302 79.5615 29.4518C79.4044 29.5782 79.1387 29.6521 78.7643 29.6736C78.5771 29.6843 78.3769 29.6723 78.1636 29.6376C77.949 29.5795 77.7447 29.4973 77.5508 29.391C77.3569 29.2848 77.1851 29.1537 77.0353 28.998C76.9089 28.8409 76.828 28.6577 76.7925 28.4485C76.8466 28.1637 76.8756 27.6455 76.8795 26.8941C76.9068 26.1413 76.9039 25.2728 76.871 24.2887C76.8381 23.3046 76.7907 22.2744 76.729 21.1981C76.6894 20.097 76.631 19.0791 76.554 18.1445C76.499 17.1851 76.4404 16.3668 76.3781 15.6896C76.3144 14.989 76.2649 14.534 76.2294 14.3248C76.216 14.0908 76.2026 13.8568 76.1892 13.6228C76.1978 13.3641 76.2195 13.1281 76.2542 12.9148C76.3123 12.7002 76.4082 12.5303 76.5419 12.4053C76.6977 12.2555 76.9393 12.1712 77.2669 12.1524C77.7115 12.127 78.1317 12.2907 78.5276 12.6436C78.9468 12.9952 79.1685 13.3816 79.1927 13.8028C79.2275 14.4111 79.2273 15.0215 79.192 15.6339C79.1787 16.2216 79.1895 16.8196 79.2244 17.428C79.2459 17.8024 79.264 18.1182 79.2787 18.3756C79.2935 18.633 79.3584 18.9462 79.4734 19.3153C79.5329 19.124 79.6311 18.7897 79.7681 18.3124C79.9051 17.835 80.0524 17.3336 80.2101 16.808C80.3912 16.2812 80.5508 15.7908 80.6892 15.3368C80.8261 14.8594 80.9243 14.5251 80.9838 14.3339C81.1208 13.8566 81.341 13.3979 81.6444 12.9579C81.9465 12.4946 82.3653 12.2241 82.9008 12.1464C83.2505 12.1029 83.5717 12.1784 83.8646 12.3729C84.1808 12.566 84.4543 12.8321 84.685 13.171C84.9144 13.4865 85.11 13.8274 85.2719 14.1938C85.4324 14.5367 85.5551 14.8349 85.6401 15.0882L88.0364 23.7191L89.7399 27.6359C89.7646 27.6579 89.7804 27.7275 89.7871 27.8445C89.7924 27.9381 89.7965 28.0082 89.7991 28.055C89.8152 28.3358 89.7611 28.6206 89.6368 28.9095C89.5346 29.1736 89.3197 29.315 88.9921 29.3338C88.5943 29.3566 88.1788 29.2748 87.7455 29.0883C87.3109 28.8785 87.0017 28.6028 86.8178 28.2612ZM97.8129 25.4828C97.6692 25.8432 97.5275 26.2387 97.3879 26.6693C97.2469 27.0764 97.0805 27.4498 96.8887 27.7895C96.6969 28.1292 96.4556 28.4247 96.1648 28.6761C95.8727 28.9042 95.4926 29.0316 95.0247 29.0584C94.2057 29.1054 93.5157 28.9454 92.9547 28.5784C92.3924 28.1881 91.9183 27.6988 91.5325 27.1106C91.1687 26.4976 90.8958 25.8324 90.7138 25.1151C90.5318 24.3977 90.4227 23.7232 90.3865 23.0914L90.1804 14.5815C90.1476 14.419 90.1733 14.2532 90.2575 14.084C90.3638 13.8901 90.4948 13.7183 90.6505 13.5685C90.8283 13.394 91.0199 13.2539 91.2251 13.1482C91.4537 13.0412 91.6616 12.9823 91.8488 12.9716C92.387 12.9408 92.8533 13.0901 93.2478 13.4196C93.641 13.7258 93.853 14.1479 93.8839 14.6861L93.904 15.0371C93.6707 15.473 93.48 16.0356 93.3317 16.7249C93.1834 17.4142 93.0735 18.16 93.0021 18.9623C92.9528 19.7398 92.9399 20.5388 92.9635 21.3591C92.987 22.1794 93.0533 22.9268 93.1624 23.6014C93.2949 24.2746 93.4688 24.8515 93.6842 25.3321C93.8982 25.7894 94.16 26.0561 94.4696 26.1323C94.5866 26.1256 94.7587 26.057 94.986 25.9266C95.2367 25.7948 95.493 25.5571 95.755 25.2134C96.017 24.8698 96.2834 24.3967 96.554 23.7943C96.8233 23.1685 97.0468 22.3575 97.2245 21.3613C97.4021 20.3651 97.5092 19.1617 97.5457 17.7511C97.5822 16.3404 97.5208 14.6537 97.3613 12.6908C97.4401 12.4281 97.5608 12.2803 97.7232 12.2475C97.9091 12.2134 98.0956 12.191 98.2828 12.1802C98.4934 12.1682 98.6696 12.1698 98.8113 12.1851C98.9517 12.1771 99.1085 12.2503 99.2817 12.4047C99.4054 12.515 99.5441 12.6831 99.6979 12.909C99.8517 13.135 99.9293 13.2596 99.9307 13.283L101.419 28.7975C101.439 29.1485 101.362 29.4464 101.188 29.6911C101.014 29.9358 100.752 30.0682 100.401 30.0884C100.284 30.0951 100.143 30.0914 99.9778 30.0774C99.8127 30.0634 99.6462 30.026 99.4784 29.9652C99.3106 29.9044 99.1531 29.8195 99.006 29.7105C98.8836 29.6237 98.8067 29.5107 98.7753 29.3716L97.9774 25.896L97.8129 25.4828ZM104.473 26.9322C104.377 26.0925 104.231 24.9741 104.034 23.5768C103.858 22.1548 103.657 20.6874 103.429 19.1745C103.225 17.6603 103.014 16.2286 102.796 14.8795C102.577 13.5304 102.4 12.4842 102.264 11.7408C102.246 11.4366 102.375 11.2296 102.651 11.1199C102.926 11.0102 103.192 10.948 103.45 10.9333C103.777 10.9145 104.122 10.9886 104.484 11.1557C104.869 11.3214 105.118 11.5654 105.23 11.8876C105.235 11.9812 105.257 12.1561 105.295 12.4121C105.332 12.6448 105.358 12.8898 105.373 13.1472C105.411 13.4032 105.449 13.6593 105.487 13.9153C105.524 14.148 105.545 14.3111 105.55 14.4047C105.558 14.5451 105.564 14.6504 105.568 14.7206C105.572 14.7908 105.576 14.861 105.58 14.9312C105.583 14.978 105.598 15.0358 105.626 15.1046C105.653 15.1735 105.695 15.2885 105.751 15.4496C105.795 15.4001 105.839 15.3389 105.881 15.266C105.948 15.1918 105.992 15.1423 106.014 15.1176C106.357 14.558 106.693 14.0692 107.021 13.6513C107.348 13.21 107.689 12.8031 108.043 12.4307C108.396 12.0348 108.783 11.6253 109.205 11.202C109.649 10.754 110.16 10.2434 110.737 9.67039C110.871 9.54535 110.971 9.45741 111.039 9.40659C111.105 9.33237 111.161 9.28222 111.206 9.25614C111.274 9.20532 111.343 9.17789 111.413 9.17387C111.482 9.14645 111.575 9.12938 111.692 9.12267C112.089 9.09987 112.495 9.21746 112.909 9.47545C113.345 9.7087 113.577 10.0593 113.603 10.5273C113.613 10.6911 113.564 10.8699 113.458 11.0638C113.35 11.2343 113.219 11.4062 113.065 11.5794C112.909 11.7291 112.741 11.8679 112.561 11.9956C112.404 12.122 112.256 12.2126 112.118 12.2675C111.541 12.8405 110.933 13.4975 110.295 14.2384C109.655 14.9558 109.065 15.7291 108.526 16.5582C107.987 17.3873 107.555 18.2455 107.23 19.1327C106.905 20.0199 106.768 20.8964 106.817 21.7622C106.863 22.5578 106.966 23.3383 107.128 24.1037C107.289 24.8692 107.392 25.6497 107.438 26.4453L107.508 27.6737C107.332 27.8717 107.177 28.0332 107.043 28.1582C106.909 28.2832 106.714 28.3531 106.456 28.3679C106.059 28.3907 105.663 28.249 105.27 27.9429C104.875 27.6134 104.61 27.2765 104.473 26.9322ZM129.25 17.0253C129.228 17.4492 129.188 17.7801 129.131 18.0181C129.098 18.2548 129.016 18.4707 128.886 18.666C128.757 18.8612 128.569 19.0715 128.324 19.2969C128.077 19.4988 127.742 19.7997 127.319 20.1996C126.895 20.5761 126.372 21.0756 125.75 21.6981C125.129 22.3206 124.377 23.1267 123.494 24.1163C123.14 24.4888 122.775 24.8736 122.398 25.2708C122.022 25.668 121.62 26.0314 121.193 26.3611C120.788 26.666 120.357 26.9255 119.9 27.1395C119.442 27.3535 118.956 27.4753 118.442 27.5048C117.435 27.5625 116.679 27.2654 116.172 26.6137C115.665 25.9619 115.386 25.1915 115.335 24.3023C115.302 23.7173 115.285 23.2253 115.286 22.8262C115.31 22.4257 115.374 21.9055 115.478 21.2657C115.207 21.0465 114.974 20.8603 114.777 20.7073C114.579 20.5308 114.471 20.2905 114.454 19.9863C114.438 19.7055 114.486 19.515 114.597 19.4147C114.732 19.313 114.881 19.2458 115.044 19.213C115.228 19.1555 115.401 19.0986 115.562 19.0424C115.723 18.9862 115.835 18.8859 115.897 18.7415C115.936 18.5985 116.003 18.3364 116.098 17.9553C116.217 17.5728 116.335 17.1787 116.453 16.7729C116.569 16.3436 116.676 15.9502 116.773 15.5925C116.892 15.2101 116.971 14.9473 117.009 14.8042C117.15 14.397 117.303 13.9892 117.467 13.5807C117.654 13.1474 117.866 12.7596 118.105 12.4173C118.367 12.0736 118.667 11.7864 119.006 11.5557C119.369 11.3236 119.796 11.1935 120.287 11.1654C120.568 11.1493 120.914 11.2585 121.327 11.4931C121.763 11.7264 122.179 12.0194 122.575 12.3724C122.969 12.7019 123.306 13.0582 123.587 13.4412C123.867 13.8242 124.015 14.1561 124.031 14.4369C124.051 14.7879 123.988 15.1202 123.842 15.4338C123.694 15.7239 123.499 16.0051 123.256 16.2773C123.036 16.5247 122.791 16.7617 122.522 16.9884C122.254 17.2151 122.008 17.4287 121.784 17.6293C121.761 17.6307 121.715 17.6568 121.648 17.7076C121.58 17.7584 121.524 17.7969 121.478 17.8229C121.456 17.8477 121.401 17.9095 121.313 18.0085C121.247 18.0827 121.17 18.1693 121.081 18.2683C120.993 18.3672 120.905 18.4662 120.817 18.5651C120.752 18.6628 120.708 18.7239 120.686 18.7487C120.62 18.8229 120.487 18.948 120.285 19.1238C120.106 19.2749 119.905 19.4508 119.682 19.6514C119.457 19.8286 119.244 20.0052 119.043 20.181C118.864 20.3321 118.741 20.4331 118.673 20.4839L118.549 20.7728C118.507 20.8691 118.473 21.0823 118.445 21.4126C118.439 21.7181 118.424 22.0711 118.4 22.4716C118.376 22.8721 118.352 23.2842 118.33 23.7081C118.329 24.1072 118.336 24.4355 118.351 24.6929C118.352 24.7163 118.365 24.739 118.39 24.7611C118.439 24.8052 118.476 24.8266 118.499 24.8252C118.686 24.8145 118.857 24.7225 119.012 24.5493C119.166 24.3762 119.335 24.2491 119.518 24.1682L124.836 18.6517L126.148 16.358C126.256 16.1875 126.468 15.9992 126.785 15.7933C127.124 15.5625 127.469 15.4371 127.82 15.417C128.17 15.3735 128.48 15.4613 128.751 15.6806C129.045 15.8985 129.211 16.3467 129.25 17.0253ZM121.372 14.7302C121.483 14.6299 121.522 14.4869 121.488 14.301C121.454 14.1151 121.374 13.9554 121.249 13.8217C121.147 13.6867 121.014 13.6121 120.849 13.5981C120.682 13.5607 120.535 13.6513 120.407 13.87C120.342 13.9676 120.224 14.1622 120.053 14.4537C119.905 14.7439 119.746 15.0464 119.577 15.3613C119.429 15.6515 119.303 15.9052 119.198 16.1225C119.093 16.3398 119.074 16.4231 119.142 16.3723L121.372 14.7302Z" fill="#E0FFE4"/>
</svg>
